<svg width="120" height="15" viewBox="0 0 120 15" fill="none" xmlns="http://www.w3.org/2000/svg">
<path d="M10.0479 3.44434H4.02734V5.87891H9.6084V8.41016H4.02734V14H0.669922V0.913086H10.0479V3.44434ZM22.291 9.06934C22.291 10.6924 21.8164 11.9727 20.8672 12.9102C19.9238 13.8418 18.5967 14.3076 16.8857 14.3076C15.1748 14.3076 13.8447 13.8418 12.8955 12.9102C11.9521 11.9727 11.4805 10.6924 11.4805 9.06934C11.4805 7.43457 11.9551 6.15137 12.9043 5.21973C13.8594 4.28809 15.1865 3.82227 16.8857 3.82227C18.6084 3.82227 19.9385 4.29102 20.876 5.22852C21.8193 6.16602 22.291 7.44629 22.291 9.06934ZM18.3975 11.4688C18.6025 11.2168 18.7549 10.915 18.8545 10.5635C18.96 10.2061 19.0127 9.71387 19.0127 9.08691C19.0127 8.50684 18.96 8.02051 18.8545 7.62793C18.749 7.23535 18.6025 6.92188 18.415 6.6875C18.2275 6.44727 18.002 6.27734 17.7383 6.17773C17.4746 6.07812 17.1904 6.02832 16.8857 6.02832C16.5811 6.02832 16.3086 6.06934 16.0684 6.15137C15.834 6.2334 15.6084 6.39746 15.3916 6.64355C15.1982 6.87207 15.043 7.18555 14.9258 7.58398C14.8145 7.98242 14.7588 8.4834 14.7588 9.08691C14.7588 9.62598 14.8086 10.0947 14.9082 10.4932C15.0078 10.8857 15.1543 11.2021 15.3477 11.4424C15.5352 11.6709 15.7578 11.8379 16.0156 11.9434C16.2793 12.0488 16.5781 12.1016 16.9121 12.1016C17.1992 12.1016 17.4717 12.0547 17.7295 11.9609C17.9932 11.8613 18.2158 11.6973 18.3975 11.4688ZM34.6484 9.06934C34.6484 10.6924 34.1738 11.9727 33.2246 12.9102C32.2812 13.8418 30.9541 14.3076 29.2432 14.3076C27.5322 14.3076 26.2021 13.8418 25.2529 12.9102C24.3096 11.9727 23.8379 10.6924 23.8379 9.06934C23.8379 7.43457 24.3125 6.15137 25.2617 5.21973C26.2168 4.28809 27.5439 3.82227 29.2432 3.82227C30.9658 3.82227 32.2959 4.29102 33.2334 5.22852C34.1768 6.16602 34.6484 7.44629 34.6484 9.06934ZM30.7549 11.4688C30.96 11.2168 31.1123 10.915 31.2119 10.5635C31.3174 10.2061 31.3701 9.71387 31.3701 9.08691C31.3701 8.50684 31.3174 8.02051 31.2119 7.62793C31.1064 7.23535 30.96 6.92188 30.7725 6.6875C30.585 6.44727 30.3594 6.27734 30.0957 6.17773C29.832 6.07812 29.5479 6.02832 29.2432 6.02832C28.9385 6.02832 28.666 6.06934 28.4258 6.15137C28.1914 6.2334 27.9658 6.39746 27.749 6.64355C27.5557 6.87207 27.4004 7.18555 27.2832 7.58398C27.1719 7.98242 27.1162 8.4834 27.1162 9.08691C27.1162 9.62598 27.166 10.0947 27.2656 10.4932C27.3652 10.8857 27.5117 11.2021 27.7051 11.4424C27.8926 11.6709 28.1152 11.8379 28.373 11.9434C28.6367 12.0488 28.9355 12.1016 29.2695 12.1016C29.5566 12.1016 29.8291 12.0547 30.0869 11.9609C30.3506 11.8613 30.5732 11.6973 30.7549 11.4688ZM46.5137 14H43.3496V12.9717C42.8047 13.417 42.2949 13.7451 41.8203 13.9561C41.3457 14.167 40.7979 14.2725 40.1768 14.2725C38.9756 14.2725 38.0146 13.8096 37.2939 12.8838C36.5732 11.958 36.2129 10.71 36.2129 9.13965C36.2129 8.30176 36.333 7.56055 36.5732 6.91602C36.8193 6.26562 37.1533 5.70898 37.5752 5.24609C37.9736 4.80664 38.457 4.4668 39.0254 4.22656C39.5938 3.98047 40.1621 3.85742 40.7305 3.85742C41.3223 3.85742 41.8057 3.92188 42.1807 4.05078C42.5615 4.17383 42.9512 4.33203 43.3496 4.52539V0.324219H46.5137V14ZM43.3496 11.2754V6.43262C43.127 6.33887 42.8926 6.27148 42.6465 6.23047C42.4004 6.18945 42.1748 6.16895 41.9697 6.16895C41.1377 6.16895 40.5137 6.42969 40.0977 6.95117C39.6816 7.4668 39.4736 8.18457 39.4736 9.10449C39.4736 10.0713 39.6406 10.7744 39.9746 11.2139C40.3086 11.6475 40.8447 11.8643 41.583 11.8643C41.8701 11.8643 42.1748 11.8115 42.4971 11.7061C42.8193 11.5947 43.1035 11.4512 43.3496 11.2754ZM62.0439 7.46973C62.0439 8.68848 61.7656 9.78125 61.209 10.748C60.6523 11.709 59.9492 12.4473 59.0996 12.9629C58.4609 13.3496 57.7607 13.6191 56.999 13.7715C56.2373 13.9238 55.335 14 54.292 14H49.6777V0.913086H54.4238C55.4902 0.913086 56.4102 1.00391 57.1836 1.18555C57.957 1.36133 58.6074 1.61328 59.1348 1.94141C60.0371 2.49219 60.7461 3.23633 61.2617 4.17383C61.7832 5.10547 62.0439 6.2041 62.0439 7.46973ZM58.5547 7.44336C58.5547 6.58203 58.3965 5.84668 58.0801 5.2373C57.7695 4.62207 57.2744 4.1416 56.5947 3.7959C56.249 3.62598 55.8945 3.51172 55.5312 3.45312C55.1738 3.38867 54.6318 3.35645 53.9053 3.35645H53.0527V11.5479H53.9053C54.708 11.5479 55.2969 11.5127 55.6719 11.4424C56.0469 11.3662 56.4131 11.2314 56.7705 11.0381C57.3857 10.6865 57.8369 10.2178 58.124 9.63184C58.4111 9.04004 58.5547 8.31055 58.5547 7.44336ZM74.1641 9.64941H66.9219C66.9688 10.4229 67.2617 11.0146 67.8008 11.4248C68.3457 11.835 69.1455 12.04 70.2002 12.04C70.8682 12.04 71.5156 11.9199 72.1426 11.6797C72.7695 11.4395 73.2646 11.1816 73.6279 10.9062H73.9795V13.4463C73.2646 13.7334 72.5908 13.9414 71.958 14.0703C71.3252 14.1992 70.625 14.2637 69.8574 14.2637C67.877 14.2637 66.3594 13.8184 65.3047 12.9277C64.25 12.0371 63.7227 10.7686 63.7227 9.12207C63.7227 7.49316 64.2207 6.2041 65.2168 5.25488C66.2188 4.2998 67.5898 3.82227 69.3301 3.82227C70.9355 3.82227 72.1426 4.22949 72.9512 5.04395C73.7598 5.85254 74.1641 7.01855 74.1641 8.54199V9.64941ZM71.0176 7.79492C71 7.13281 70.8359 6.63477 70.5254 6.30078C70.2148 5.9668 69.7314 5.7998 69.0752 5.7998C68.4658 5.7998 67.9648 5.95801 67.5723 6.27441C67.1797 6.59082 66.96 7.09766 66.9131 7.79492H71.0176ZM79.5605 14H76.3965V0.324219H79.5605V14ZM85.7129 14H82.5488V4.12988H85.7129V14ZM85.8008 2.72363H82.4609V0.324219H85.8008V2.72363ZM98.6416 4.12988L94.8359 14H91.25L87.4707 4.12988H90.8193L93.1045 10.915L95.3633 4.12988H98.6416ZM110.129 9.64941H102.887C102.934 10.4229 103.227 11.0146 103.766 11.4248C104.311 11.835 105.11 12.04 106.165 12.04C106.833 12.04 107.48 11.9199 108.107 11.6797C108.734 11.4395 109.229 11.1816 109.593 10.9062H109.944V13.4463C109.229 13.7334 108.556 13.9414 107.923 14.0703C107.29 14.1992 106.59 14.2637 105.822 14.2637C103.842 14.2637 102.324 13.8184 101.27 12.9277C100.215 12.0371 99.6875 10.7686 99.6875 9.12207C99.6875 7.49316 100.186 6.2041 101.182 5.25488C102.184 4.2998 103.555 3.82227 105.295 3.82227C106.9 3.82227 108.107 4.22949 108.916 5.04395C109.725 5.85254 110.129 7.01855 110.129 8.54199V9.64941ZM106.982 7.79492C106.965 7.13281 106.801 6.63477 106.49 6.30078C106.18 5.9668 105.696 5.7998 105.04 5.7998C104.431 5.7998 103.93 5.95801 103.537 6.27441C103.145 6.59082 102.925 7.09766 102.878 7.79492H106.982ZM119.516 7.14453H119.234C119.1 7.09766 118.883 7.0625 118.584 7.03906C118.285 7.01562 118.036 7.00391 117.837 7.00391C117.386 7.00391 116.987 7.0332 116.642 7.0918C116.296 7.15039 115.924 7.25 115.525 7.39062V14H112.361V4.12988H115.525V5.58008C116.223 4.98242 116.829 4.58691 117.345 4.39355C117.86 4.19434 118.335 4.09473 118.769 4.09473C118.88 4.09473 119.006 4.09766 119.146 4.10352C119.287 4.10938 119.41 4.11816 119.516 4.12988V7.14453Z" fill="#404040"/>
</svg>
